<?xml version="1.0" encoding="UTF-8" standalone="no"?>
<!-- Created with Inkscape (http://www.inkscape.org/) -->

<svg
   width="380"
   height="254"
   viewBox="0 0 100.54166 67.204166"
   version="1.1"
   id="svg5"
   inkscape:version="1.2.2 (b0a8486541, 2022-12-01)"
   sodipodi:docname="rainbow.svg"
   xmlns:inkscape="http://www.inkscape.org/namespaces/inkscape"
   xmlns:sodipodi="http://sodipodi.sourceforge.net/DTD/sodipodi-0.dtd"
   xmlns="http://www.w3.org/2000/svg"
   xmlns:svg="http://www.w3.org/2000/svg">
  <sodipodi:namedview
     id="namedview7"
     pagecolor="#ffffff"
     bordercolor="#666666"
     borderopacity="1.0"
     inkscape:showpageshadow="2"
     inkscape:pageopacity="0.0"
     inkscape:pagecheckerboard="0"
     inkscape:deskcolor="#d1d1d1"
     inkscape:document-units="mm"
     showgrid="false"
     inkscape:zoom="0.38663019"
     inkscape:cx="893.61878"
     inkscape:cy="416.41859"
     inkscape:window-width="1880"
     inkscape:window-height="1048"
     inkscape:window-x="40"
     inkscape:window-y="0"
     inkscape:window-maximized="1"
     inkscape:current-layer="g581">
    <sodipodi:guide
       position="0,67.204164"
       orientation="0,380"
       id="guide418"
       inkscape:locked="false" />
    <sodipodi:guide
       position="100.54166,67.204164"
       orientation="254,0"
       id="guide420"
       inkscape:locked="false" />
    <sodipodi:guide
       position="100.54166,0"
       orientation="0,-380"
       id="guide422"
       inkscape:locked="false" />
    <sodipodi:guide
       position="0,0"
       orientation="-254,0"
       id="guide424"
       inkscape:locked="false" />
  </sodipodi:namedview>
  <defs
     id="defs2" />
  <g
     inkscape:label="Ebene 1"
     inkscape:groupmode="layer"
     id="layer1"
     style="display:inline"
     sodipodi:insensitive="true">
    <path
       id="path254"
       style="fill:#c58b8b;fill-opacity:1;stroke:none;stroke-width:0.696002"
       d="M 1180.7734,-1113.5692 A 1180.4254,1180.4254 0 0 0 346.08637,-767.83065 1180.4254,1180.4254 0 0 0 0.34778239,66.856384 1180.4254,1180.4254 0 0 1 1180.7734,-717.36345 Z" />
    <path
       id="path488"
       style="fill:#8b8bc5;fill-opacity:1;stroke:none;stroke-width:0.696002"
       d="M 1446.068,-767.83054 A 1180.4254,1180.4254 0 0 0 550.33852,-649.90565 1180.4254,1180.4254 0 0 0 0.34778349,66.856383 1180.4254,1180.4254 0 0 1 1343.5224,-385.12518 Z"
       inkscape:transform-center-x="-722.8601"
       inkscape:transform-center-y="-437.45451" />
    <path
       id="path490"
       style="fill:#8bc58b;fill-opacity:1;stroke:none;stroke-width:0.696002"
       d="M 1612.8392,-365.20935 A 1180.4254,1180.4254 0 0 0 717.10971,-483.1345 1180.4254,1180.4254 0 0 0 0.34778538,66.856383 1180.4254,1180.4254 0 0 1 1414.7363,-22.08511 Z"
       inkscape:transform-center-x="-806.2457"
       inkscape:transform-center-y="-295.10645" />
    <path
       id="path497"
       style="fill:#c58b8b;fill-opacity:1;stroke:none;stroke-width:0.696002"
       d="M -1079.884,1180.4256 A 1180.4254,1180.4254 0 0 0 -245.19692,834.68703 1180.4254,1180.4254 0 0 0 100.54167,0 1180.4254,1180.4254 0 0 1 -1079.884,784.21983 Z" />
    <path
       id="path499"
       style="fill:#8b8bc5;fill-opacity:1;stroke:none;stroke-width:0.696002"
       d="M -1345.1786,834.68692 A 1180.4254,1180.4254 0 0 0 -449.44907,716.76203 1180.4254,1180.4254 0 0 0 100.54167,1e-6 1180.4254,1180.4254 0 0 1 -1242.633,451.98156 Z"
       inkscape:transform-center-x="-722.8601"
       inkscape:transform-center-y="-437.45451" />
    <path
       id="path501"
       style="fill:#8bc58b;fill-opacity:1;stroke:none;stroke-width:0.696002"
       d="M -1511.9498,432.06573 A 1180.4254,1180.4254 0 0 0 -616.22026,549.99088 1180.4254,1180.4254 0 0 0 100.54166,1e-6 1180.4254,1180.4254 0 0 1 -1313.8469,88.941494 Z"
       inkscape:transform-center-x="806.24573"
       inkscape:transform-center-y="295.10645" />
    <path
       id="path524"
       style="fill:#979797;fill-opacity:1;stroke:none;stroke-width:0.696002"
       d="M 1669.7217,66.856421 A 1180.4254,1180.4254 0 0 0 835.03476,-278.88238 1180.4254,1180.4254 0 0 0 0.34778692,66.856383 1180.4254,1180.4254 0 0 1 1389.5619,347.01618 Z"
       inkscape:transform-center-x="-834.68695"
       inkscape:transform-center-y="-32.789489" />
    <path
       id="path531"
       style="fill:#979797;fill-opacity:1;stroke:none;stroke-width:0.696002"
       d="M -1568.8323,-5.4806084e-5 A 1180.4254,1180.4254 0 0 0 -734.1453,345.73876 1180.4254,1180.4254 0 0 0 100.54166,-1.1884278e-6 1180.4254,1180.4254 0 0 1 -1288.6725,-280.15981 Z"
       inkscape:transform-center-x="834.68698"
       inkscape:transform-center-y="32.789477" />
  </g>
  <g
     inkscape:label="Ebene 1 Kopie"
     inkscape:groupmode="layer"
     id="g581"
     style="display:inline">
    <path
       id="path565"
       style="fill:#800000;stroke:none;stroke-width:0.696002"
       d="M 2.3647135 0 A 1180.4254 1180.4254 0 0 0 0.34778239 66.856384 A 1180.4254 1180.4254 0 0 1 26.564787 0 L 2.3647135 0 z " />
    <path
       id="path571"
       style="fill:#800000;stroke:none;stroke-width:0.696002"
       d="M 100.54167 0 A 1180.4254 1180.4254 0 0 1 74.168599 67.204167 L 98.619303 67.204167 A 1180.4254 1180.4254 0 0 0 100.54167 0 z " />
    <path
       id="path567"
       style="fill:#000080;stroke:none;stroke-width:0.696002"
       inkscape:transform-center-x="-722.8601"
       inkscape:transform-center-y="-437.45451"
       d="M 20.845756 0 A 1180.4254 1180.4254 0 0 0 0.34778239 66.856384 A 1180.4254 1180.4254 0 0 1 50.147327 0 L 20.845756 0 z M 100.54167 0 A 1180.4254 1180.4254 0 0 1 50.483223 67.204167 L 79.93724 67.204167 A 1180.4254 1180.4254 0 0 0 100.54167 0 z " />
    <path
       id="path569"
       style="fill:#008000;stroke:none;stroke-width:0.696002"
       inkscape:transform-center-x="-806.2457"
       inkscape:transform-center-y="-295.10645"
       d="M 42.372607 0 A 1180.4254 1180.4254 0 0 0 0.34778239 66.856384 A 1180.4254 1180.4254 0 0 1 86.988489 0 L 42.372607 0 z " />
    <path
       id="path575"
       style="fill:#008000;stroke:none;stroke-width:0.696002"
       inkscape:transform-center-x="806.24573"
       inkscape:transform-center-y="295.10645"
       d="M 100.54167 0 A 1180.4254 1180.4254 0 0 1 13.419853 67.204167 L 58.278097 67.204167 A 1180.4254 1180.4254 0 0 0 100.54167 0 z " />
    <path
       id="path577"
       style="fill:#1a1a1a;stroke:none;stroke-width:0.696002"
       inkscape:transform-center-x="-834.68695"
       inkscape:transform-center-y="-32.789489"
       d="M 74.441451 0 A 1180.4254 1180.4254 0 0 0 45.093372 24.55354 A 1180.4254 1180.4254 0 0 1 0 41.38042 L 0 67.204167 L 26.032003 67.204167 A 1180.4254 1180.4254 0 0 0 55.796077 42.302844 A 1180.4254 1180.4254 0 0 1 100.54167 25.605672 L 100.54167 0 L 74.441451 0 z " />
    <path
       style="opacity:0.54423;fill:#ffffff;fill-opacity:1;stroke:none;stroke-width:0.696002"
       id="path3290"
       sodipodi:type="arc"
       sodipodi:cx="47.507694"
       sodipodi:cy="34.066898"
       sodipodi:rx="7.661449"
       sodipodi:ry="7.661449"
       sodipodi:start="4.712389"
       sodipodi:end="4.6946411"
       sodipodi:arc-type="arc"
       d="m 47.507694,26.405449 a 7.661449,7.661449 0 0 1 7.661374,7.627456 7.661449,7.661449 0 0 1 -7.593387,7.695141 7.661449,7.661449 0 0 1 -7.728757,-7.55917 7.661449,7.661449 0 0 1 7.524803,-7.76222"
       sodipodi:open="true" />
  </g>
</svg>
